<?xml version="1.0" encoding="utf-8"?>
<!-- Generator: Adobe Illustrator 28.0.0, SVG Export Plug-In . SVG Version: 6.00 Build 0)  -->
<svg version="1.1" id="Layer_1" xmlns="http://www.w3.org/2000/svg" xmlns:xlink="http://www.w3.org/1999/xlink" x="0px" y="0px"
	 viewBox="0 0 100 100" style="enable-background:new 0 0 100 100;" xml:space="preserve">
<style type="text/css">
	.st0{fill:none;stroke:#000000;stroke-miterlimit:10;}
	.st1{fill:none;stroke:#000000;stroke-linecap:round;stroke-linejoin:round;stroke-miterlimit:10;}
	.st2{fill:#FFFFFF;stroke:#000000;stroke-miterlimit:10;}
</style>
<g>
	<ellipse class="st0" cx="27.9" cy="21.1" rx="26.8" ry="5.8"/>
	<ellipse class="st0" cx="27.9" cy="27.1" rx="26.8" ry="5.8"/>
	<ellipse class="st0" cx="27.9" cy="33.1" rx="26.8" ry="5.8"/>
	<ellipse class="st0" cx="27.9" cy="38.1" rx="26.8" ry="5.8"/>
	<ellipse class="st0" cx="27.9" cy="44.1" rx="26.8" ry="5.8"/>
	<ellipse class="st0" cx="27.9" cy="50.1" rx="26.8" ry="5.8"/>
	<ellipse class="st0" cx="27.9" cy="56.1" rx="26.8" ry="5.8"/>
	<ellipse class="st0" cx="27.9" cy="61.1" rx="26.8" ry="5.8"/>
	<g>
		<circle class="st0" cx="84.9" cy="68.5" r="13.9"/>
		<path class="st1" d="M84.9,82.5V54.6c0,0,4.9,6.3,4.9,13.2S84.9,82.5,84.9,82.5z"/>
		<path class="st1" d="M84.9,82.5c0,0-4.1-6.2-4.1-14.6s4.1-13.2,4.1-13.2s9.4,3.2,9.4,13.2S84.9,82.5,84.9,82.5z"/>
		<path class="st1" d="M84.9,54.6c0,0-8.5,3.1-8.5,13.2s8.5,14.7,8.5,14.7"/>
		<line class="st0" x1="71" y1="68.5" x2="98.8" y2="68.5"/>
		<path class="st0" d="M73.2,61c0,0,4.2,3.2,11.7,3.2s11.9-2.9,11.9-2.9"/>
		<path class="st0" d="M72.2,74.1c0,0,6-2.3,12.8-2.3c6.7,0,12.8,2.3,12.8,2.3"/>
		<path class="st0" d="M75.6,78.9c0,0,4.4-2.2,9.3-2.2c4.9,0,9.3,2.2,9.3,2.2"/>
		<path class="st0" d="M75.6,58.2c0,0,3.8,1.6,9.3,1.6c5.6,0,9.4-1.6,9.4-1.6"/>
	</g>
	<path class="st2" d="M82.9,72.3H17.8c-1.1,0-2-0.9-2-2V26.4c0-1.1,0.9-2,2-2h65.1c1.1,0,2,0.9,2,2v43.9
		C84.9,71.4,84,72.3,82.9,72.3z"/>
	<line class="st2" x1="15.7" y1="32.1" x2="84.9" y2="32.1"/>
	<circle class="st2" cx="20.3" cy="28.3" r="1.4"/>
	<circle class="st2" cx="25.3" cy="28.3" r="1.4"/>
	<circle class="st2" cx="30.3" cy="28.3" r="1.4"/>
	<polyline class="st0" points="34.3,55.1 33.8,54.6 32.2,61 30.7,53.9 26.7,59 28.2,52.4 21.7,54.6 26.7,50 19.8,48.3 26.7,47.2 
		21.2,42.2 27.8,44.2 26,37.4 30.3,42.7 32,36.1 33.8,42.9 38.3,38.2 36.8,44.2 42.6,42.8 38.2,46.8 44.2,48.3 37.7,50 42.9,54.6 
		36.3,52.5 38.4,59 34.3,55.1 	"/>
	<g>
		<path d="M51.6,53.7l-16.9-4.5v0.5c0,0.8-0.7,1.5-1.5,1.5h-0.1l4.5,16.8l4.8-6l5,5l2.9-3.7l-4.8-4.6L51.6,53.7z"/>
		<path d="M34.7,49.2v-1.9c0-0.8-0.7-1.5-1.5-1.5h-2.4c-0.8,0-1.5,0.7-1.5,1.5v2.4c0,0.8,0.7,1.5,1.5,1.5h2.3l-0.7-2.7L34.7,49.2z"
			/>
	</g>
	<path class="st0" d="M51.2,51.2h-2.4c-0.8,0-1.5-0.7-1.5-1.5v-2.4c0-0.8,0.7-1.5,1.5-1.5h2.4c0.8,0,1.5,0.7,1.5,1.5v2.4
		C52.7,50.6,52,51.2,51.2,51.2z"/>
	<path class="st0" d="M69.2,51.2h-2.4c-0.8,0-1.5-0.7-1.5-1.5v-2.4c0-0.8,0.7-1.5,1.5-1.5h2.4c0.8,0,1.5,0.7,1.5,1.5v2.4
		C70.7,50.6,70,51.2,69.2,51.2z"/>
	<path class="st1" d="M58.8,74.1c0,0,0.6,5.5,7.4,5.5H16.9c0,0-5.8-0.5-8.1-6.3"/>
	<path class="st1" d="M66.2,79.6c0,0-5.3-0.6-7.1,5.1"/>
	<path class="st0" d="M60.8,16.1h21.8c5.4,0,9.8,4.4,9.8,9.8V48"/>
	<circle cx="60.8" cy="16.1" r="0.8"/>
	<circle cx="92.3" cy="48" r="0.8"/>
</g>
</svg>
