<?xml version="1.0" encoding="utf-8"?>
<!-- Generator: Adobe Illustrator 28.0.0, SVG Export Plug-In . SVG Version: 6.00 Build 0)  -->
<svg version="1.1" id="Layer_1" xmlns="http://www.w3.org/2000/svg" xmlns:xlink="http://www.w3.org/1999/xlink" x="0px" y="0px"
	 viewBox="0 0 100 100" style="enable-background:new 0 0 100 100;" xml:space="preserve">
<style type="text/css">
	.st0{fill:#FFFFFF;stroke:#000000;stroke-miterlimit:10;}
	.st1{fill:none;stroke:#000000;stroke-miterlimit:10;}
	.st2{fill:none;stroke:#000000;stroke-linecap:round;stroke-linejoin:round;stroke-miterlimit:10;}
	.st3{stroke:#000000;stroke-miterlimit:10;}
</style>
<polygon class="st0" points="36.2,79.7 35.2,81.1 36.9,81.7 35.2,82.2 36.1,83.7 34.5,83 34.2,84.8 33.4,83.2 32.1,84.4 32.5,82.7 
	30.7,82.7 32.1,81.7 30.8,80.6 32.5,80.6 32.2,78.9 33.5,80.1 34.3,78.6 34.5,80.3 "/>
<polygon class="st0" points="27.5,57.6 26,60 28.7,60.9 26,61.8 27.5,64.2 24.8,63.1 24.4,66 23.1,63.4 20.9,65.3 21.6,62.5 
	18.7,62.6 21,60.9 18.7,59.1 21.6,59.2 21,56.4 23.1,58.4 24.5,55.8 24.9,58.7 "/>
<circle class="st1" cx="69.9" cy="44.5" r="6.6"/>
<path class="st2" d="M65.8,49.7l8.3-10.3c0,0,0,3.8-2.1,6.4C69.9,48.3,65.8,49.7,65.8,49.7z"/>
<path class="st2" d="M65.8,49.7c0,0,0.3-3.5,2.9-6.7c2.5-3.2,5.4-3.7,5.4-3.7s2.5,4-0.4,7.7C70.7,50.8,65.8,49.7,65.8,49.7z"/>
<path class="st2" d="M74.1,39.4c0,0-4.1-1.4-7.1,2.4c-3,3.7-1.2,8-1.2,8"/>
<line class="st1" x1="64.8" y1="40.4" x2="75.1" y2="48.7"/>
<path class="st1" d="M67.8,38.2c0,0,0.6,2.5,3.4,4.7c2.8,2.3,5.3,2.5,5.3,2.5"/>
<path class="st1" d="M63.6,42.8c0,0,2.9,0.9,5.4,2.9c2.5,2,4,4.6,4,4.6"/>
<path class="st1" d="M63.4,45.6c0,0,2.3,0.5,4.1,2c1.8,1.4,2.8,3.6,2.8,3.6"/>
<path class="st1" d="M69.6,37.9c0,0,0.9,1.7,2.9,3.4c2.1,1.7,4,2.2,4,2.2"/>
<g>
	<path class="st3" d="M96.5,87.7c0.1,1.2-0.8,2.3-2,2.4l-9.9,0.9l-1.2-14.1l9.9-0.9c1.2-0.1,2.2,0.8,2.4,2L96.5,87.7z"/>
	<path class="st0" d="M84.6,90.9l-40.8,3.6c-1.2,0.1-2.2-0.8-2.4-2l-0.9-9.8c-0.1-1.2,0.8-2.3,2-2.4l40.9-3.6L84.6,90.9z"/>
	<circle class="st0" cx="44.8" cy="84.5" r="1.3"/>
	<circle class="st0" cx="49.3" cy="83.9" r="1.3"/>
	<circle class="st0" cx="53.7" cy="83.4" r="1.3"/>
</g>
<g>
	<path class="st3" d="M68.5,19.1c0.1,1.2-0.8,2.2-2,2.4l-9.9,0.9L55.4,8.2l9.9-0.9c1.2-0.1,2.2,0.8,2.4,2L68.5,19.1z"/>
	<path class="st0" d="M56.6,22.3l-40.8,3.6c-1.2,0.1-2.3-0.8-2.4-2l-0.9-9.8c-0.1-1.2,0.8-2.2,2-2.4l40.9-3.6L56.6,22.3z"/>
	<circle class="st0" cx="16.8" cy="15.9" r="1.3"/>
	<circle class="st0" cx="21.3" cy="15.3" r="1.3"/>
	<circle class="st0" cx="25.8" cy="14.7" r="1.3"/>
</g>
<g>
	<path class="st0" d="M93,38.2l-50.6-5.8c-1.2-0.1-2.1-1.2-1.9-2.4l1.1-9.8c0.1-1.2,1.2-2.1,2.4-1.9l50.6,5.8
		c1.2,0.1,2.1,1.2,1.9,2.4l-1.1,9.8C95.3,37.5,94.2,38.4,93,38.2z"/>
	<line class="st1" x1="84.7" y1="23" x2="83.1" y2="37.1"/>
	<circle class="st0" cx="45.4" cy="22.7" r="1.3"/>
	<circle class="st0" cx="49.9" cy="23.1" r="1.3"/>
	<circle class="st0" cx="54.4" cy="23.4" r="1.3"/>
</g>
<g>
	<path class="st0" d="M63.8,52.6L7.5,51.2c-1.3,0-2.4-1.3-2.3-2.9l0.3-12.7c0-1.6,1.1-2.8,2.5-2.7l56.2,1.4c1.3,0,2.4,1.3,2.3,2.9
		l-0.3,12.7C66.2,51.4,65.1,52.7,63.8,52.6z"/>
	<line class="st1" x1="48.8" y1="34" x2="47.9" y2="52.2"/>
	<circle class="st0" cx="9.6" cy="37.2" r="1.3"/>
	<circle class="st0" cx="14.1" cy="37.2" r="1.3"/>
	<circle class="st0" cx="18.6" cy="37.1" r="1.3"/>
</g>
<g>
	<path class="st0" d="M92.7,68.8l-50,0.2c-1.2,0-2.1-1.5-2.2-3.4l-0.1-15.2c0-1.9,0.9-3.4,2.1-3.4l50-0.2c1.2,0,2.1,1.5,2.2,3.4
		l0.1,15.2C94.8,67.3,93.9,68.8,92.7,68.8z"/>
	<line class="st1" x1="76.4" y1="46.9" x2="76.7" y2="68.7"/>
	<circle class="st0" cx="44.1" cy="51.2" r="1.3"/>
	<circle class="st0" cx="48.6" cy="51.1" r="1.3"/>
	<circle class="st0" cx="53.1" cy="51" r="1.3"/>
</g>
<g>
	<path class="st3" d="M59.5,71.1l-1.1,9.8c-0.1,1.2-1.2,2.1-2.4,1.9l-9.9-1.1l1.6-14.1l9.8,1.1C58.8,68.9,59.6,69.9,59.5,71.1z"/>
	<path class="st0" d="M47.7,67.6l-1.6,14.1L5.3,77c-1.2-0.1-2-1.2-1.9-2.4l1.1-9.8c0.1-1.2,1.2-2,2.4-1.9L47.7,67.6z"/>
	<circle class="st0" cx="8.4" cy="67.3" r="1.3"/>
	<circle class="st0" cx="12.9" cy="67.6" r="1.3"/>
	<circle class="st0" cx="17.4" cy="68" r="1.3"/>
</g>
<polygon class="st0" points="80.7,11.4 79.2,13.9 81.9,14.8 79.1,15.6 80.6,18.1 78,17 77.6,19.8 76.3,17.3 74.1,19.2 74.7,16.4 
	71.9,16.4 74.2,14.7 71.9,12.9 74.8,13.1 74.2,10.2 76.3,12.2 77.7,9.7 78,12.5 "/>
</svg>
