<?xml version="1.0" encoding="utf-8"?>
<!-- Generator: Adobe Illustrator 28.0.0, SVG Export Plug-In . SVG Version: 6.00 Build 0)  -->
<svg version="1.1" id="Layer_1" xmlns="http://www.w3.org/2000/svg" xmlns:xlink="http://www.w3.org/1999/xlink" x="0px" y="0px"
	 viewBox="0 0 100 100" style="enable-background:new 0 0 100 100;" xml:space="preserve">
<style type="text/css">
	.st0{fill:none;stroke:#000000;stroke-miterlimit:10;}
	.st1{fill:none;stroke:#000000;stroke-linecap:round;stroke-linejoin:round;stroke-miterlimit:10;}
	.st2{fill:#FFFFFF;stroke:#000000;stroke-miterlimit:10;}
	.st3{fill:none;stroke:#000000;stroke-linecap:round;stroke-miterlimit:10;}
	.st4{fill:#FFFFFF;stroke:#000000;stroke-linecap:round;stroke-linejoin:round;stroke-miterlimit:10;}
</style>
<g>
	<path class="st0" d="M10,56h11c1.1,0,2,0.9,2,2v14c0,1.1,0.9,2,2,2h27.1c1.1,0,2-0.9,2-2v-7.5c0-1.1,0.9-2.1,2.1-2.1h16.9
		c1.1,0,1.9-0.9,1.9-1.9V37"/>
	<path class="st0" d="M19.5,28.5v16c0,1.1,0.9,2,2,2h14.9c1.1,0,2,0.9,2,2v8.2c0,1.1,0.9,2,2,2h14.6c1.1,0,2,0.9,2,2v5.7
		c0,1.1,0.9,2,2,2h18.3"/>
	<path class="st0" d="M30,36v27.6c0,1.1,0.9,2,2,2h14.8c1.2,0,2.2-1,2.2-2.2v-8.2c0-1.1,0.9-2,2-2h32"/>
	<circle class="st0" cx="11.5" cy="74.5" r="9"/>
	<path class="st1" d="M11.5,83.5v-18c0,0,3.2,4.1,3.2,8.5C14.7,78.5,11.5,83.5,11.5,83.5z"/>
	<path class="st1" d="M11.5,83.5c0,0-2.6-4-2.6-9.5c0-5.5,2.6-8.5,2.6-8.5s6.1,2.1,6.1,8.5C17.6,80.5,11.5,83.5,11.5,83.5z"/>
	<path class="st1" d="M11.5,65.5c0,0-5.5,2-5.5,8.5s5.5,9.5,5.5,9.5"/>
	<line class="st0" x1="2.5" y1="74.5" x2="20.5" y2="74.5"/>
	<path class="st0" d="M3.9,69.6c0,0,2.7,2.1,7.6,2.1s7.7-1.8,7.7-1.8"/>
	<path class="st0" d="M3.3,78.1c0,0,3.9-1.5,8.2-1.5s8.2,1.5,8.2,1.5"/>
	<path class="st0" d="M5.5,81.2c0,0,2.9-1.4,6-1.4s6,1.4,6,1.4"/>
	<path class="st0" d="M5.5,67.8c0,0,2.4,1.1,6,1.1s6.1-1,6.1-1"/>
	<circle class="st2" cx="85" cy="79" r="8.5"/>
	<path class="st3" d="M79.5,80.5c0,0,1,4.6,5.5,4.6s5.5-4.6,5.5-4.6"/>
	<ellipse cx="87.5" cy="75.5" rx="1.5" ry="2.5"/>
	<ellipse cx="82.5" cy="75.5" rx="1.5" ry="2.5"/>
	<circle cx="19.5" cy="28.5" r="1"/>
	<circle cx="30" cy="36" r="1"/>
	<circle cx="10.1" cy="56" r="1"/>
	<circle cx="77.5" cy="68.5" r="1"/>
	<circle cx="83.1" cy="53.2" r="1"/>
	<circle cx="75" cy="37" r="1"/>
	<polygon points="15.1,43.8 11.8,44.5 11.2,47.8 10.4,44.6 7.2,43.9 10.5,43.3 11.1,39.9 11.8,43.1 	"/>
	<polygon points="60.8,73.5 59.1,73.8 58.8,75.4 58.4,73.8 56.8,73.5 58.5,73.2 58.8,71.5 59.1,73.1 	"/>
	<polygon points="72.8,24.2 71.2,24.5 70.9,26.2 70.5,24.6 68.9,24.2 70.6,23.9 70.8,22.2 71.2,23.9 	"/>
	<line class="st3" x1="88" y1="30.7" x2="88" y2="47.8"/>
	<line class="st3" x1="96.8" y1="39.3" x2="79.5" y2="39.3"/>
	<line class="st3" x1="94.1" y1="33.4" x2="82.1" y2="45.4"/>
	<line class="st3" x1="82.1" y1="33.4" x2="94.1" y2="45.4"/>
	<circle cx="88" cy="39.4" r="1.9"/>
	<circle class="st0" cx="53.2" cy="37" r="11.3"/>
	<circle class="st0" cx="53.2" cy="37" r="14.3"/>
	<line class="st3" x1="58" y1="32.3" x2="48.7" y2="41.6"/>
	<line class="st3" x1="57.5" y1="35.3" x2="51.3" y2="41.5"/>
	<line class="st3" x1="42.3" y1="46.3" x2="38.5" y2="50"/>
	<line class="st3" x1="44.2" y1="48.1" x2="40.2" y2="52.1"/>
	<path class="st4" d="M37.6,49.6L26,61.1c0,0-1.4,1.7,0,3.1c1.4,1.4,3.3,0,3.3,0L40.6,53L37.6,49.6z"/>
	<line class="st3" x1="30.9" y1="9.4" x2="30.9" y2="26.5"/>
	<line class="st3" x1="39.6" y1="17.9" x2="22.4" y2="17.9"/>
	<line class="st3" x1="37" y1="12.1" x2="25" y2="24.1"/>
	<line class="st3" x1="24.9" y1="12.1" x2="36.9" y2="24.1"/>
	<circle cx="30.9" cy="18.1" r="1.9"/>
</g>
</svg>
