<?xml version="1.0" encoding="utf-8"?>
<!-- Generator: Adobe Illustrator 28.0.0, SVG Export Plug-In . SVG Version: 6.00 Build 0)  -->
<svg version="1.1" id="Layer_1" xmlns="http://www.w3.org/2000/svg" xmlns:xlink="http://www.w3.org/1999/xlink" x="0px" y="0px"
	 viewBox="0 0 100 100" style="enable-background:new 0 0 100 100;" xml:space="preserve">
<style type="text/css">
	.st0{fill:none;stroke:#000000;stroke-miterlimit:10;}
	.st1{fill:none;stroke:#000000;stroke-linecap:round;stroke-linejoin:round;stroke-miterlimit:10;}
	.st2{stroke:#000000;stroke-miterlimit:10;}
	.st3{fill:#FFFFFF;stroke:#000000;stroke-miterlimit:10;}
	.st4{fill:none;stroke:#000000;stroke-linecap:round;stroke-miterlimit:10;}
	.st5{fill:#FFFFFF;stroke:#000000;stroke-linecap:round;stroke-linejoin:round;stroke-miterlimit:10;}
	.st6{fill:#FFFFFF;}
</style>
<circle class="st0" cx="88.4" cy="69.4" r="7"/>
<path class="st1" d="M88.4,76.3V62.4c0,0,2.5,3.2,2.5,6.6C90.9,72.5,88.4,76.3,88.4,76.3z"/>
<path class="st1" d="M88.4,76.3c0,0-2-3.1-2-7.3s2-6.6,2-6.6s4.7,1.6,4.7,6.6C93.1,74,88.4,76.3,88.4,76.3z"/>
<path class="st1" d="M88.4,62.4c0,0-4.2,1.5-4.2,6.6c0,5,4.2,7.3,4.2,7.3"/>
<line class="st0" x1="81.4" y1="69.4" x2="95.3" y2="69.4"/>
<path class="st0" d="M82.5,65.6c0,0,2.1,1.6,5.9,1.6s5.9-1.4,5.9-1.4"/>
<path class="st0" d="M82,72.1c0,0,3-1.2,6.3-1.2s6.3,1.2,6.3,1.2"/>
<path class="st0" d="M83.7,74.5c0,0,2.2-1.1,4.6-1.1s4.6,1.1,4.6,1.1"/>
<path class="st0" d="M83.7,64.2c0,0,1.9,0.8,4.6,0.8s4.7-0.8,4.7-0.8"/>
<path class="st2" d="M84.8,18.8v9.7H17.9v-9.7c0-1.5,1.2-2.8,2.8-2.8H82C83.5,16,84.8,17.2,84.8,18.8z"/>
<path class="st3" d="M84.8,28.5V80c0,1.5-1.2,2.8-2.8,2.8H20.7c-1.5,0-2.8-1.2-2.8-2.8V28.5H84.8z"/>
<path class="st0" d="M70,85.6h20.4c1.5,0,2.7,1.2,2.7,2.7v7.1c0,1.5-1.2,2.7-2.7,2.7H44.2c-1.5,0-2.7-1.2-2.7-2.7v-7.1
	c0-1.5,1.2-2.7,2.7-2.7h20.4"/>
<polyline class="st1" points="64.7,85.6 67.3,82.8 70,85.6 "/>
<polygon points="48.9,88.2 50.1,90.6 52.7,91 50.8,92.8 51.2,95.4 48.9,94.2 46.6,95.4 47,92.8 45.1,91 47.7,90.6 "/>
<polygon points="58.1,88.2 59.3,90.6 61.9,91 60,92.8 60.5,95.4 58.1,94.2 55.8,95.4 56.3,92.8 54.4,91 57,90.6 "/>
<polygon points="67.4,88.2 68.6,90.6 71.2,91 69.3,92.8 69.7,95.4 67.4,94.2 65.1,95.4 65.5,92.8 63.6,91 66.2,90.6 "/>
<polygon points="76.6,88.2 77.8,90.6 80.4,91 78.5,92.8 79,95.4 76.6,94.2 74.3,95.4 74.8,92.8 72.9,91 75.5,90.6 "/>
<polygon points="85.9,88.2 87.1,90.6 89.7,91 87.8,92.8 88.2,95.4 85.9,94.2 83.6,95.4 84,92.8 82.1,91 84.7,90.6 "/>
<polygon points="21,87.3 19.1,84.8 18.6,87.9 17.8,84.9 16.1,87.6 16.6,84.4 14,86.2 15.7,83.5 12.6,84.1 15.2,82.4 12.2,81.6 
	15.3,81.1 12.8,79.1 15.9,80 14.4,77.1 16.8,79.1 16.6,76 18.1,78.8 19.2,75.8 19.3,79 21.5,76.7 20.4,79.7 23.3,78.5 21.1,80.7 
	24.3,80.9 21.3,82 24.1,83.4 21,83.2 23,85.7 20.2,84.2 "/>
<polygon points="70.5,70 71.1,71.1 72.3,71.7 71.1,72.4 70.5,73.5 69.9,72.4 68.7,71.7 69.9,71.1 "/>
<polygon points="13.9,95.9 14.5,97.1 15.7,97.7 14.5,98.3 13.9,99.5 13.3,98.3 12.2,97.7 13.3,97.1 "/>
<polygon points="97.3,10.3 97.9,11.4 99.1,12 97.9,12.7 97.3,13.8 96.7,12.7 95.6,12 96.7,11.4 "/>
<polygon points="26.1,0.5 26.7,1.6 27.8,2.3 26.7,2.9 26.1,4 25.5,2.9 24.3,2.3 25.5,1.6 "/>
<polygon points="2.4,24.3 3,25.4 4.1,26 3,26.6 2.4,27.8 1.7,26.6 0.6,26 1.7,25.4 "/>
<circle class="st3" cx="51.9" cy="55.6" r="13.7"/>
<path class="st4" d="M43.1,58.1c0,0,1.6,7.4,8.9,7.4s8.9-7.4,8.9-7.4"/>
<ellipse cx="56" cy="50" rx="2.4" ry="4"/>
<ellipse cx="47.9" cy="50" rx="2.4" ry="4"/>
<path class="st5" d="M65.7,19.7h5.7c1.1,0,2-0.9,2-2V6c0-1.1-0.9-2-2-2H56c-1.1,0-2,0.9-2,2v11.7c0,1.1,0.9,2,2,2h5.4l2.3,2.7
	L65.7,19.7z"/>
<path class="st3" d="M65.7,19.7"/>
<path class="st5" d="M63.7,22.4l2-2.7L63.7,22.4z"/>
<path class="st5" d="M90.4,47.3h5.7c1.1,0,2-0.9,2-2V33.7c0-1.1-0.9-2-2-2H80.7c-1.1,0-2,0.9-2,2v11.7c0,1.1,0.9,2,2,2h5.4l2.3,2.7
	L90.4,47.3z"/>
<path class="st5" d="M14.2,57.6h5.7c1.1,0,2-0.9,2-2V43.9c0-1.1-0.9-2-2-2H4.5c-1.1,0-2,0.9-2,2v11.7c0,1.1,0.9,2,2,2h5.4l2.3,2.7
	L14.2,57.6z"/>
<path class="st1" d="M73.4,12c0,0,23.5-5.4,17.4,19.6"/>
<path class="st1" d="M5.9,57.6c0,0-13.8,24.8,11,24.3"/>
<circle class="st6" cx="23.7" cy="22.9" r="1.8"/>
<circle class="st6" cx="29.7" cy="22.9" r="1.8"/>
<circle class="st6" cx="35.7" cy="22.9" r="1.8"/>
<path d="M63.3,16.4"/>
<path d="M58.4,10.8l4.9,5.6L58.4,10.8z"/>
<path d="M68.6,9.7c0-1.5-1.2-2.8-2.8-2.8c-1.1,0-2,0.6-2.4,1.5c-0.5-0.9-1.4-1.5-2.4-1.5c-1.5,0-2.8,1.2-2.8,2.8
	c0,0.7,0.3,1.4,0.8,1.9h0l0,0c0,0,0,0,0,0l4.3,4.7l4.2-4.5C68.1,11.3,68.6,10.6,68.6,9.7z"/>
<path d="M93.5,38.2c0-1.5-1.2-2.8-2.8-2.8c-1.1,0-2,0.6-2.4,1.5c-0.5-0.9-1.4-1.5-2.4-1.5c-1.5,0-2.8,1.2-2.8,2.8
	c0,0.7,0.3,1.4,0.8,1.9h0l0,0c0,0,0,0,0,0l4.3,4.7l4.2-4.5C93.1,39.9,93.5,39.1,93.5,38.2z"/>
<path d="M17.3,48c0-1.5-1.2-2.8-2.8-2.8c-1.1,0-2,0.6-2.4,1.5c-0.5-0.9-1.4-1.5-2.4-1.5c-1.5,0-2.8,1.2-2.8,2.8
	c0,0.7,0.3,1.4,0.8,1.9h0l0,0c0,0,0,0,0,0l4.3,4.7l4.2-4.5C16.9,49.7,17.3,48.9,17.3,48z"/>
</svg>
