<?xml version="1.0" encoding="utf-8"?>
<!-- Generator: Adobe Illustrator 28.0.0, SVG Export Plug-In . SVG Version: 6.00 Build 0)  -->
<svg version="1.1" id="Layer_1" xmlns="http://www.w3.org/2000/svg" xmlns:xlink="http://www.w3.org/1999/xlink" x="0px" y="0px"
	 viewBox="0 0 100 100" style="enable-background:new 0 0 100 100;" xml:space="preserve">
<style type="text/css">
	.st0{fill:none;stroke:#000000;stroke-miterlimit:10;}
	.st1{fill:none;stroke:#000000;stroke-linecap:round;stroke-linejoin:round;stroke-miterlimit:10;}
	.st2{fill:#FFFFFF;stroke:#000000;stroke-miterlimit:10;}
	.st3{fill:#FFFFFF;stroke:#000000;stroke-linecap:round;stroke-linejoin:round;stroke-miterlimit:10;}
	.st4{fill:#FFFFFF;stroke:#000000;stroke-linecap:round;stroke-miterlimit:10;}
	.st5{stroke:#000000;stroke-linecap:round;stroke-miterlimit:10;}
	.st6{stroke:#000000;stroke-linecap:round;stroke-linejoin:round;stroke-miterlimit:10;}
</style>
<circle class="st0" cx="39" cy="84.4" r="9"/>
<path class="st1" d="M32.3,90.5l13.3-12.1c0,0-0.9,5.1-4.1,8.1C38.2,89.5,32.3,90.5,32.3,90.5z"/>
<path class="st1" d="M32.3,90.5c0,0,1.2-4.6,5.3-8.3s8-3.8,8-3.8s2.5,5.9-2.2,10.2C38.6,93,32.3,90.5,32.3,90.5z"/>
<path class="st1" d="M45.6,78.4c0,0-5.2-2.7-10,1.6c-4.8,4.4-3.3,10.5-3.3,10.5"/>
<line class="st0" x1="32.9" y1="77.8" x2="45" y2="91.1"/>
<path class="st0" d="M37.5,75.5c0,0,0.3,3.4,3.6,7s6.5,4.5,6.5,4.5"/>
<path class="st0" d="M30.8,80.8c0,0,3.7,1.9,6.6,5.1c2.9,3.2,4.4,7.1,4.4,7.1"/>
<path class="st0" d="M30,84.5c0,0,3,1.2,5.1,3.5c2.1,2.3,3,5.4,3,5.4"/>
<path class="st0" d="M39.9,75.5c0,0,0.8,2.5,3.2,5.2s4.8,3.8,4.8,3.8"/>
<path class="st2" d="M61.7,51.3l-47.6,7.4C13,58.8,12,58.1,11.8,57L7,26C6.9,25,7.6,24,8.7,23.8l47.6-7.4c1.1-0.2,2.1,0.6,2.2,1.6
	l4.8,31C63.5,50.1,62.7,51.1,61.7,51.3z"/>
<path class="st2" d="M93.1,50.7l-32.7-1.4c-1.1,0-1.9-1-1.9-2.1l1-23.9c0-1.1,1-1.9,2.1-1.9l32.7,1.4c1.1,0,1.9,1,1.9,2.1l-1,23.9
	C95.1,49.9,94.2,50.8,93.1,50.7z"/>
<path class="st2" d="M64.3,80.3L32,78.9c-1.1,0-2-1-2-2.2l1.5-34.2c0-1.1,1-2,2.2-2L65.9,42c1.1,0,2,1,2,2.2l-1.5,34.2
	C66.4,79.5,65.4,80.3,64.3,80.3z"/>
<path class="st2" d="M88.9,83.9l-20.6,1.4c-1.1,0.1-2-0.8-2.1-1.9l-2.1-32c-0.1-1.1,0.8-2,1.9-2.1l20.6-1.4c1.1-0.1,2,0.8,2.1,1.9
	l2.1,32C90.8,82.9,90,83.8,88.9,83.9z"/>
<path class="st2" d="M33.3,86.3l-20.6,1.4c-1.1,0.1-2-0.8-2.1-1.9l-2.1-32c-0.1-1.1,0.8-2,1.9-2.1L31,50.3c1.1-0.1,2,0.8,2.1,1.9
	l2.1,32C35.2,85.3,34.4,86.3,33.3,86.3z"/>
<polyline class="st1" points="12.6,75.9 13.3,63.1 15.1,69.5 16,61.5 17.4,77.2 18.4,72 20.7,75.2 20.7,65.3 24.9,73.9 24.9,63.1 
	28.8,74.1 29.3,65.4 31.4,71.2 31.4,67.1 "/>
<polygon class="st3" points="51.7,20.4 48.9,19.8 49.4,22.6 47.5,20.5 46.2,23 45.9,20.1 43.3,21.4 44.8,19 42,18.5 44.6,17.3 
	42.6,15.3 45.4,15.9 45,13.1 46.8,15.3 48.2,12.7 48.4,15.6 51,14.3 49.5,16.8 52.4,17.2 49.7,18.4 "/>
<polygon points="19.5,18.4 18.4,19 17.8,20.1 17.3,19 16.2,18.4 17.3,17.9 17.8,16.8 18.4,17.9 "/>
<polygon points="74.8,16.8 73.9,17.3 73.4,18.2 72.9,17.3 72,16.8 72.9,16.3 73.4,15.4 73.9,16.3 "/>
<polygon points="95.8,58.4 95.2,58.9 95,59.6 94.5,59 93.7,58.8 94.3,58.3 94.6,57.5 95.1,58.1 "/>
<polygon points="55.2,85.9 54.6,86.4 54.4,87.2 53.9,86.6 53.1,86.4 53.7,85.8 53.9,85.1 54.5,85.7 "/>
<polygon points="5.7,48.1 5.1,48.5 4.8,49.2 4.3,48.6 3.6,48.3 4.2,47.8 4.5,47.1 5,47.8 "/>
<circle cx="10.6" cy="26.6" r="0.9"/>
<circle cx="14" cy="26" r="0.9"/>
<circle cx="17.5" cy="25.4" r="0.9"/>
<circle cx="62.8" cy="24" r="0.8"/>
<circle cx="66.1" cy="24.3" r="0.8"/>
<circle cx="69.6" cy="24.5" r="0.8"/>
<circle cx="11.4" cy="54.4" r="0.8"/>
<circle cx="14.1" cy="54.1" r="0.8"/>
<circle cx="16.9" cy="53.9" r="0.8"/>
<circle cx="34.4" cy="42.9" r="0.8"/>
<circle cx="37.7" cy="43.1" r="0.8"/>
<circle cx="41.3" cy="43.3" r="0.8"/>
<circle cx="67.2" cy="51.7" r="0.8"/>
<circle cx="70.5" cy="51.6" r="0.8"/>
<circle cx="73.9" cy="51.3" r="0.8"/>
<line class="st0" x1="7.6" y1="29.6" x2="59.1" y2="21.8"/>
<line class="st0" x1="59.4" y1="26" x2="96.1" y2="27.7"/>
<line class="st0" x1="64.1" y1="54.6" x2="88.8" y2="53.2"/>
<line class="st0" x1="31.4" y1="44.8" x2="67.8" y2="46.5"/>
<line class="st0" x1="8.7" y1="56.8" x2="33.3" y2="55.4"/>
<polyline class="st4" points="16.9,51.3 14.6,36.1 14,32.1 "/>
<line class="st4" x1="52.4" y1="29.6" x2="14.6" y2="36.1"/>
<line class="st4" x1="42" y1="33.8" x2="14.9" y2="38.3"/>
<path class="st2" d="M37,37.6"/>
<path class="st2" d="M15.3,40.6"/>
<path class="st2" d="M38.5,36.7"/>
<path class="st1" d="M63.5,40.3c1-2.5,1.5-6.6,4.7-7.1c1.8-0.3,5.6,0.1,6.8,1.7c1.3,1.7,1.1,4,2.7,5.6c7,7.2,7-11.2,13.2-8.9"/>
<path class="st1" d="M67.3,39.5c1.4-2.6,3.3-6.2,6.4-7.1c3.7-1,5.2,1.4,6.3,4.5c1.2,3.2,2.8,4.8,6.4,4.5c2.5-0.2,4.8-2.9,5.6-5.2"/>
<line class="st1" x1="69.6" y1="81.3" x2="87" y2="80"/>
<line class="st3" x1="78.3" y1="80.6" x2="76.5" y2="57.5"/>
<line class="st3" x1="80.9" y1="80.5" x2="79" y2="60.4"/>
<line class="st3" x1="83.4" y1="80.3" x2="81.7" y2="63.2"/>
<line class="st3" x1="85.6" y1="80.1" x2="84.5" y2="66.6"/>
<line class="st3" x1="75.5" y1="80.6" x2="73.9" y2="60.4"/>
<path class="st2" d="M72,80.8"/>
<line class="st3" x1="70.4" y1="63.8" x2="72" y2="80.8"/>
<line class="st4" x1="15.3" y1="40.6" x2="41.3" y2="36.7"/>
<line class="st4" x1="15.8" y1="43.9" x2="29.1" y2="41.7"/>
<line class="st4" x1="16.3" y1="47.3" x2="27.4" y2="45.6"/>
<path class="st5" d="M49,62v13.8c-7.6,0-13.8-6.2-13.8-13.8c0-1.8,0.4-3.6,1-5.2L49,62z"/>
<path class="st4" d="M54.2,49.3L49,62l-12.7-5.2c2.1-5,7-8.6,12.7-8.6C50.8,48.2,52.6,48.6,54.2,49.3z"/>
<path class="st4" d="M62.7,62c0,7.6-6.2,13.8-13.8,13.8V62l13-4.5C62.5,58.9,62.7,60.4,62.7,62z"/>
<path class="st6" d="M62,57.5L49,62l5.2-12.7C57.8,50.8,60.7,53.8,62,57.5z"/>
<path class="st3" d="M49,62l-5.2-12.7L49,62z"/>
<line class="st3" x1="62.3" y1="65.4" x2="49" y2="62"/>
</svg>
