<?xml version="1.0" encoding="utf-8"?>
<!-- Generator: Adobe Illustrator 28.0.0, SVG Export Plug-In . SVG Version: 6.00 Build 0)  -->
<svg version="1.1" id="Layer_1" xmlns="http://www.w3.org/2000/svg" xmlns:xlink="http://www.w3.org/1999/xlink" x="0px" y="0px"
	 viewBox="0 0 100 100" style="enable-background:new 0 0 100 100;" xml:space="preserve">
<style type="text/css">
	.st0{fill:#FFFFFF;stroke:#000000;stroke-miterlimit:10;}
	.st1{fill:none;stroke:#000000;stroke-linecap:round;stroke-linejoin:round;stroke-miterlimit:10;}
</style>
<g>
	<path class="st0" d="M75.9,19.7l-11.5,6.6c-0.6,0.4-1.4,0.1-1.7-0.5l-3.8-6.6c-0.4-0.6-0.1-1.4,0.5-1.7l11.5-6.6
		c0.6-0.4,1.4-0.1,1.7,0.5l3.8,6.6C76.7,18.6,76.5,19.3,75.9,19.7z"/>
	<polyline class="st0" points="71.9,10.8 68.5,20 58.7,18.6 	"/>
	<line class="st0" x1="63.6" y1="26.5" x2="66.4" y2="19.7"/>
	<line class="st0" x1="69.2" y1="18.1" x2="76.6" y2="18.6"/>
</g>
<g>
	<path class="st0" d="M76.7,38.6L69.9,46c-0.5,0.5-1.3,0.6-1.8,0.1l-4-3.7c-0.5-0.5-0.6-1.3-0.1-1.8l6.8-7.4
		c0.5-0.5,1.3-0.6,1.8-0.1l4,3.7C77.2,37.3,77.2,38.1,76.7,38.6z"/>
	<polyline class="st0" points="71.7,32.7 71.4,40.4 63.6,41.7 	"/>
	<line class="st0" x1="69.2" y1="46.5" x2="69.7" y2="40.7"/>
	<line class="st0" x1="71.5" y1="38.8" x2="77.1" y2="37.5"/>
</g>
<g>
	<path class="st0" d="M48.7,66.2L37,80.5c-0.4,0.5-1.3,0.6-1.8,0.2l-8.4-7c-0.5-0.4-0.6-1.3-0.2-1.8l11.8-14.3
		c0.4-0.5,1.3-0.6,1.8-0.2l8.4,7C49.1,64.9,49.2,65.7,48.7,66.2z"/>
	<polyline class="st0" points="39.3,57.4 39.4,70.4 26.5,73.2 	"/>
	<line class="st0" x1="36.3" y1="80.8" x2="36.6" y2="71"/>
	<line class="st0" x1="39.4" y1="67.7" x2="48.7" y2="64.9"/>
</g>
<ellipse transform="matrix(0.2887 -0.9574 0.9574 0.2887 42.0271 101.6836)" cx="89.4" cy="22.6" rx="15.3" ry="9.3"/>
<ellipse transform="matrix(0.9546 -0.298 0.298 0.9546 -23.4183 7.8833)" cx="14.1" cy="80.8" rx="9.3" ry="15.3"/>
<polygon points="5.2,66.6 4.3,67.9 4.2,69.5 2.9,68.6 1.3,68.5 2.2,67.2 2.2,65.6 3.6,66.5 "/>
<polygon points="27.8,93.8 26.5,93.1 25,93.2 25.7,91.9 25.5,90.4 26.9,91.1 28.3,91 27.6,92.3 "/>
<polygon points="85.4,6.6 84,7.3 83.1,8.7 82.4,7.2 81,6.3 82.5,5.6 83.4,4.2 84.1,5.7 "/>
<polygon points="95.9,36 97.2,35.8 98.1,34.9 98.4,36.2 99.3,37.1 98,37.4 97,38.2 96.8,37 "/>
<path class="st1" d="M78.6,23.1c0,0-17.2,5.4-32.9,35.8"/>
<path class="st1" d="M83.9,38.8c0,0-14.5,10.2-26.2,32.2c0,0,1.7-2.8-0.4-7"/>
<path class="st1" d="M23.8,88.8c0,0,8.5,1.4,20.8-12.9S65,46.5,65,46.5"/>
<path class="st1" d="M59.8,24.1C39.4,44.9,40.5,58.5,21.7,72.3"/>
<path class="st1" d="M15.5,67.1c0,0,9.3-4.1,27.4-34.5c0,0-1.5,3-6.6,2.2"/>
<path class="st1" d="M36.3,34.9"/>
<path class="st1" d="M42.9,32.7c0,0-2,4.3,0,6.9"/>
<path class="st1" d="M57.7,71c0,0,2.1-3.4,6.2-2.6"/>
</svg>
